<svg width="264" height="101" viewBox="0 0 264 101" fill="none" xmlns="http://www.w3.org/2000/svg">
<path d="M99.0683 47.7077C99.0683 46.414 98.4595 45.8051 97.1658 45.8051H87.729V51.4367H97.1658C98.3834 51.4367 99.0683 50.8279 99.0683 49.5342V47.6316V47.7077ZM102.873 49.6103C102.873 53.4154 100.971 55.2419 97.2419 55.2419H87.8051V60.8735H84V42H97.2419C101.047 42 102.873 43.9026 102.873 47.6316V49.6103Z" fill="white"/>
<path d="M156.83 60.9496H153.025V47.8599L141.686 60.9496H137.957V42.0761H141.686V55.1658L153.025 42.0761H156.83V60.9496Z" fill="white"/>
<path d="M124.258 60.9496H120.453V47.8599L109.114 60.9496H105.385V42.0761H109.114V55.1658L120.453 42.0761H124.258V60.9496Z" fill="white"/>
<path d="M178.139 60.9496H174.334V53.4154H163.071V60.9496H159.265V42.0761H163.071V49.6103H174.334V42.0761H178.139V60.9496Z" fill="white"/>
<path d="M195.719 55.318C195.719 54.0242 195.11 53.4154 193.816 53.4154H184.379V57.2205H193.816C195.034 57.2205 195.719 56.6117 195.719 55.318ZM195.719 47.7838C195.719 46.4901 195.11 45.8812 193.816 45.8812H184.379V49.6864H193.816C195.034 49.6864 195.719 49.0775 195.719 47.7838ZM199.524 55.318C199.524 59.1231 197.621 60.9496 193.892 60.9496H180.65V42.0761H193.892C197.621 42.0761 199.524 43.9787 199.524 47.7077C199.524 49.4581 199.143 50.6757 198.306 51.5128C199.067 52.35 199.524 53.5676 199.524 55.318Z" fill="white"/>
<path d="M220.833 45.8812H205.688V49.6103H217.027V53.4154H205.688V57.1444H220.833V60.9496H201.883V42.0761H220.833V45.8812Z" fill="white"/>
<path d="M127.226 49.6103H135.978V53.4154H127.226V49.6103Z" fill="white"/>
<path d="M242.141 60.9496H228.899C225.094 60.9496 223.268 59.047 223.268 55.318V47.7838C223.268 43.9787 225.17 42.1522 228.899 42.1522H242.141V45.9573H228.899C227.606 45.9573 226.997 46.5662 226.997 47.8599V55.3941C226.997 56.6878 227.606 57.2966 228.899 57.2966H242.141V61.1018V60.9496Z" fill="white"/>
<path d="M263.45 45.8812H255.916V60.9496H252.111V45.8812H244.577V42.0761H263.45V45.8812Z" fill="white"/>
<path d="M60.607 68.02C59.8056 64.93 58.6408 61.9459 57.137 59.13C54.727 54.38 51.927 49.85 49.137 45.29C45.707 39.58 42.347 33.82 39.417 27.82C36.362 21.671 33.959 15.2192 32.247 8.57C31.567 5.8 31.067 3.02 30.487 0.190002C30.487 0.300002 30.487 0.410002 30.417 0.520002C29.8524 4.48103 28.9831 8.39262 27.817 12.22C25.4074 19.9947 22.1477 27.4799 18.097 34.54C14.877 40.24 11.497 45.84 8.19704 51.48C5.81033 55.3952 3.69213 59.4679 1.85704 63.67C-0.0447862 68.0539 -0.500149 72.9298 0.557041 77.59C1.89591 83.952 5.46366 89.6264 10.617 93.59C19.127 100.22 28.737 102.03 39.107 99.32C50.997 96.22 59.287 86.67 60.807 75.92C61.2436 73.2979 61.1757 70.6166 60.607 68.02Z" fill="#155E95"/>
<path d="M38.057 87.02H36.627V84.77H38.057V87.02Z" fill="white"/>
<path d="M36.627 77.64V75.93H38.057V77.64H36.627Z" fill="white"/>
<path d="M36.627 80.27V78.96H38.057V80.27H36.627Z" fill="white"/>
<path d="M13.217 87.93C13.6345 87.693 13.98 87.3475 14.217 86.93C14.4019 86.6237 14.5242 86.2838 14.577 85.93H15.007V87.93H13.217Z" fill="white"/>
<path d="M38.067 81.88V83.36H36.627V81.88H38.067Z" fill="white"/>
<path d="M15.057 82.8V85.34H14.617V82.8H15.057Z" fill="white"/>
<path d="M35.577 49.77C36.3114 48.5728 36.7554 47.2203 36.8735 45.8207C36.9916 44.4211 36.7805 43.0133 36.257 41.71C37.417 43.54 38.487 45.39 37.537 47.71C37.1217 48.5892 36.4345 49.3115 35.577 49.77Z" fill="white"/>
<path d="M52.777 71.17C52.7928 71.0386 52.7769 70.9054 52.7308 70.7814C52.6846 70.6575 52.6094 70.5463 52.5116 70.4573C52.4137 70.3682 52.296 70.3039 52.1682 70.2696C52.0405 70.2352 51.9063 70.232 51.777 70.26C51.107 70.26 50.427 70.26 49.777 70.26C48.777 70.18 48.437 70.84 48.587 71.63H49.277C49.3177 71.6326 49.3559 71.6505 49.3838 71.6803C49.4116 71.71 49.4271 71.7492 49.427 71.79V71.91C49.4348 71.9292 49.4348 71.9508 49.427 71.97C49.557 72.07 49.677 72.18 49.817 72.27C50.2006 72.4703 50.5654 72.7045 50.907 72.97C51.2274 73.2732 51.4816 73.6394 51.6537 74.0455C51.8257 74.4516 51.912 74.889 51.907 75.33C51.907 76.33 51.907 77.33 51.907 78.42C52.257 78.05 52.787 78.11 52.787 77.56C52.787 75.42 52.787 73.3 52.777 71.17Z" fill="white"/>
<path d="M15.077 77.55C15.0881 77.4121 15.0704 77.2734 15.0252 77.1427C14.9799 77.012 14.908 76.8921 14.814 76.7906C14.72 76.6891 14.606 76.6082 14.4791 76.553C14.3523 76.4978 14.2154 76.4695 14.077 76.47C12.937 76.47 11.787 76.47 10.647 76.47C10.4373 76.4596 10.2305 76.5229 10.0625 76.6489C9.89444 76.7749 9.77578 76.9557 9.72704 77.16C9.68669 77.5757 9.68669 77.9943 9.72704 78.41H10.487C10.5366 78.4124 10.5836 78.4332 10.6187 78.4683C10.6538 78.5034 10.6746 78.5504 10.677 78.6V79.02C10.7768 79.1322 10.9101 79.2093 11.057 79.24C11.7886 79.5533 12.4802 79.9528 13.117 80.43C13.6095 80.8099 14.0152 81.2906 14.307 81.84L14.517 82.24H15.067C15.067 82.13 15.067 82.03 15.067 81.92C15.087 80.46 15.087 79.02 15.077 77.55Z" fill="white"/>
<path d="M60.607 68.02C59.8056 64.93 58.6408 61.9459 57.137 59.13C54.727 54.38 51.927 49.85 49.137 45.29C45.707 39.58 42.347 33.82 39.417 27.82C36.362 21.671 33.959 15.2192 32.247 8.57C31.567 5.8 31.067 3.02 30.487 0.190002C30.487 0.300002 30.487 0.410002 30.417 0.520002C29.8524 4.48103 28.9831 8.39262 27.817 12.22C25.4074 19.9947 22.1477 27.4799 18.097 34.54C14.877 40.24 11.497 45.84 8.19704 51.48C5.81033 55.3952 3.69213 59.4679 1.85704 63.67C-0.0447862 68.0539 -0.500149 72.9298 0.557041 77.59C1.89591 83.952 5.46366 89.6264 10.617 93.59C19.127 100.22 28.737 102.03 39.107 99.32C50.997 96.22 59.287 86.67 60.807 75.92C61.2436 73.2979 61.1757 70.6166 60.607 68.02ZM22.107 42.74C23.167 40.64 24.357 38.59 25.557 36.56C27.2912 33.801 28.6783 30.8387 29.687 27.74C30.027 26.57 30.257 25.37 30.567 24.1C30.8406 26.0062 31.3201 27.8772 31.997 29.68C33.0738 32.3004 34.3684 34.8259 35.867 37.23C36.867 38.86 37.747 40.52 38.667 42.17C41.057 46.48 38.787 50.71 35.787 52.67C33.7191 54.0175 31.2109 54.5149 28.7853 54.0585C26.3596 53.602 24.2037 52.227 22.767 50.22C21.9579 49.1647 21.4661 47.9007 21.3492 46.576C21.2323 45.2513 21.4952 43.9207 22.107 42.74ZM17.517 58.18L17.697 58.82C18.087 57.91 17.947 56.82 19.047 56.34L18.737 57.05C19.237 56.98 19.297 56.59 19.437 56.29C19.577 55.99 19.697 55.66 19.867 55.36C20.0028 55.8045 20.0283 56.2753 19.9412 56.7319C19.854 57.1884 19.657 57.6168 19.367 57.98L19.967 57.73C19.767 58.56 19.607 59.32 19.377 60.06C19.2936 60.3073 19.1306 60.5199 18.9135 60.6647C18.6964 60.8094 18.4374 60.8781 18.177 60.86C17.9383 60.8346 17.7135 60.7351 17.5342 60.5755C17.3549 60.4159 17.23 60.2042 17.177 59.97C17.0683 59.6685 17.0424 59.3434 17.1023 59.0285C17.1621 58.7136 17.3053 58.4206 17.517 58.18ZM55.727 77.56C54.7055 81.4217 52.753 84.9742 50.0403 87.9065C47.3277 90.8388 43.9377 93.0615 40.167 94.38C31.377 97.69 22.927 96.62 15.117 91.38C11.2144 88.7181 8.17338 84.9751 6.36704 80.61C6.17704 80.18 6.25704 79.95 6.65704 79.77C7.05704 79.59 7.33704 79.44 7.65704 79.3C7.81765 79.2515 7.97204 79.1844 8.11704 79.1V78.66C8.11559 78.6347 8.11951 78.6093 8.12854 78.5856C8.13758 78.5619 8.15153 78.5404 8.16947 78.5224C8.18741 78.5045 8.20894 78.4905 8.23265 78.4815C8.25636 78.4725 8.28171 78.4686 8.30704 78.47H9.14704V77.63C9.12756 77.4264 9.15079 77.2209 9.21526 77.0268C9.27973 76.8326 9.384 76.6541 9.52142 76.5025C9.65884 76.351 9.82638 76.2298 10.0133 76.1467C10.2003 76.0636 10.4025 76.0205 10.607 76.02C11.727 76.02 12.857 76.02 13.987 76.02C14.1883 76.0182 14.3878 76.0579 14.573 76.1369C14.7582 76.2158 14.925 76.3322 15.063 76.4787C15.2011 76.6252 15.3074 76.7986 15.3752 76.9882C15.443 77.1777 15.4708 77.3792 15.457 77.58V87.93H16.707C16.8137 83.67 16.927 79.4233 17.047 75.19C17.167 70.96 17.277 66.73 17.397 62.47H19.457C19.687 70.97 19.917 79.47 20.147 87.93H21.437V75.43H21.267C21.1822 75.43 21.1008 75.3963 21.0408 75.3363C20.9808 75.2763 20.947 75.1949 20.947 75.11V73.45C20.947 73.3651 20.9808 73.2837 21.0408 73.2237C21.1008 73.1637 21.1822 73.13 21.267 73.13H24.397C24.4495 73.1306 24.5008 73.1459 24.545 73.1741C24.5892 73.2024 24.6246 73.2426 24.647 73.29C24.647 73.29 24.647 73.36 24.647 73.4V75.06C24.647 75.1449 24.6133 75.2263 24.5533 75.2863C24.4933 75.3463 24.4119 75.38 24.327 75.38H24.187V86.22H26.007V68.34H24.997C24.9555 68.34 24.9143 68.3317 24.8761 68.3155C24.8378 68.2993 24.8031 68.2756 24.7742 68.2457C24.7453 68.2158 24.7227 68.1805 24.7077 68.1417C24.6927 68.1029 24.6857 68.0615 24.687 68.02V67.02C24.6857 66.9785 24.6927 66.9371 24.7077 66.8983C24.7227 66.8595 24.7453 66.8242 24.7742 66.7943C24.8031 66.7645 24.8378 66.7407 24.8761 66.7245C24.9143 66.7083 24.9555 66.7 24.997 66.7H30.187C30.2719 66.7 30.3533 66.7337 30.4133 66.7937C30.4733 66.8537 30.507 66.9351 30.507 67.02V68.02C30.507 68.1049 30.4733 68.1863 30.4133 68.2463C30.3533 68.3063 30.2719 68.34 30.187 68.34H28.997V87.02H32.477V84.77H31.477C31.4505 84.77 31.4251 84.7595 31.4063 84.7407C31.3876 84.722 31.377 84.6965 31.377 84.67V83.36C31.3754 83.3465 31.3769 83.3328 31.3814 83.3199C31.3858 83.3071 31.3931 83.2954 31.4028 83.2857C31.4124 83.2761 31.4241 83.2688 31.4369 83.2643C31.4498 83.2599 31.4635 83.2584 31.477 83.26H32.477V81.88H31.477C31.4635 81.8816 31.4498 81.8801 31.4369 81.8757C31.4241 81.8712 31.4124 81.8639 31.4028 81.8543C31.3931 81.8446 31.3858 81.833 31.3814 81.8201C31.3769 81.8072 31.3754 81.7935 31.377 81.78V80.47C31.377 80.4435 31.3876 80.418 31.4063 80.3993C31.4251 80.3805 31.4505 80.37 31.477 80.37H32.477V79.11H31.487C31.4735 79.1116 31.4598 79.1101 31.4469 79.1057C31.4341 79.1012 31.4224 79.0939 31.4128 79.0843C31.4031 79.0746 31.3958 79.063 31.3914 79.0501C31.3869 79.0372 31.3854 79.0235 31.387 79.01V77.65C31.387 77.6235 31.3976 77.598 31.4163 77.5793C31.4351 77.5605 31.4605 77.55 31.487 77.55H32.487V76.13H31.487C31.4735 76.1316 31.4598 76.1301 31.4469 76.1257C31.4341 76.1212 31.4224 76.1139 31.4128 76.1043C31.4031 76.0946 31.3958 76.083 31.3914 76.0701C31.3869 76.0572 31.3854 76.0435 31.387 76.03V74.72C31.387 74.6935 31.3976 74.668 31.4163 74.6493C31.4351 74.6305 31.4605 74.62 31.487 74.62H32.487C32.487 74.49 32.487 74.36 32.487 74.22C32.487 73.07 32.487 71.93 32.487 70.79V69.1C32.4869 69.0344 32.5002 68.9694 32.5262 68.9091C32.5522 68.8488 32.5903 68.7945 32.6381 68.7495C32.6859 68.7045 32.7424 68.6698 32.8041 68.6476C32.8659 68.6253 32.9315 68.6159 32.997 68.62C33.0531 68.4216 33.08 68.2161 33.077 68.01C33.077 67.58 33.197 67.42 33.637 67.45C34.237 67.45 34.827 67.45 35.427 67.45C35.747 67.45 35.897 67.57 35.877 67.89C35.8362 68.1316 35.8362 68.3784 35.877 68.62H35.997C36.1235 68.6226 36.2442 68.674 36.3336 68.7634C36.4231 68.8529 36.4745 68.9735 36.477 69.1V70.36C36.477 71.66 36.477 72.96 36.477 74.25C36.4671 74.3731 36.4671 74.4969 36.477 74.62H37.997C38.0074 74.4835 38.0074 74.3465 37.997 74.21C37.997 73.07 37.997 71.93 37.997 70.78V69.1C37.997 68.9797 38.0441 68.8642 38.1282 68.7782C38.2123 68.6922 38.3268 68.6426 38.447 68.64V67.82C38.447 67.7139 38.4892 67.6122 38.5642 67.5372C38.6392 67.4622 38.741 67.42 38.847 67.42H40.997C41.0504 67.4187 41.1035 67.428 41.1532 67.4475C41.2029 67.467 41.2482 67.4963 41.2864 67.5336C41.3246 67.5708 41.3549 67.6154 41.3757 67.6646C41.3964 67.7138 41.4071 67.7666 41.407 67.82V68.62H41.527C41.6535 68.6226 41.7742 68.674 41.8636 68.7634C41.9531 68.8529 42.0045 68.9735 42.007 69.1V70.02C42.007 70.02 42.007 70.1 42.007 70.14C42.007 71.5 42.007 72.86 42.007 74.22V74.65H42.997C43.0236 74.65 43.049 74.6605 43.0677 74.6793C43.0865 74.698 43.097 74.7235 43.097 74.75V76.02C43.0986 76.0335 43.0972 76.0472 43.0927 76.0601C43.0883 76.073 43.0809 76.0846 43.0713 76.0943C43.0617 76.1039 43.05 76.1112 43.0371 76.1157C43.0243 76.1201 43.0106 76.1216 42.997 76.12H42.097V77.54H42.997C43.0236 77.54 43.049 77.5505 43.0677 77.5693C43.0865 77.588 43.097 77.6135 43.097 77.64V78.95C43.0986 78.9635 43.0972 78.9772 43.0927 78.9901C43.0883 79.003 43.0809 79.0146 43.0713 79.0243C43.0617 79.0339 43.05 79.0412 43.0371 79.0457C43.0243 79.0501 43.0106 79.0516 42.997 79.05H42.097V80.36H42.997C43.0236 80.36 43.049 80.3705 43.0677 80.3893C43.0865 80.408 43.097 80.4335 43.097 80.46V81.77C43.0986 81.7835 43.0972 81.7972 43.0927 81.8101C43.0883 81.823 43.0809 81.8346 43.0713 81.8443C43.0617 81.8539 43.05 81.8612 43.0371 81.8657C43.0243 81.8701 43.0106 81.8716 42.997 81.87H42.117V83.25H42.997C43.0106 83.2484 43.0243 83.2499 43.0371 83.2543C43.05 83.2588 43.0617 83.2661 43.0713 83.2757C43.0809 83.2854 43.0883 83.2971 43.0927 83.3099C43.0972 83.3228 43.0986 83.3365 43.097 83.35V84.66H42.167V86.96H44.917V75.66C44.8687 75.1866 44.9173 74.7084 45.06 74.2545C45.2027 73.8006 45.4365 73.3805 45.747 73.02C46.0932 72.7306 46.4647 72.4729 46.857 72.25L47.267 71.97C47.2554 71.9411 47.2554 71.9089 47.267 71.88V71.76C47.267 71.7192 47.2824 71.68 47.3103 71.6503C47.3382 71.6205 47.3764 71.6026 47.417 71.6H47.997C47.997 71.41 47.997 71.22 47.997 71.03C48.0023 70.6967 48.1384 70.3787 48.376 70.1449C48.6136 69.911 48.9337 69.78 49.267 69.78C50.097 69.78 50.927 69.78 51.757 69.78C51.9424 69.7708 52.1276 69.8013 52.3002 69.8696C52.4727 69.9379 52.6287 70.0423 52.7575 70.1759C52.8864 70.3095 52.9851 70.4691 53.0471 70.644C53.1091 70.8189 53.133 71.0051 53.117 71.19C53.117 72.51 53.117 73.83 53.117 75.14V77.54L56.117 75.77C55.997 76.45 55.887 77.02 55.727 77.56Z" fill="white"/>
</svg>
